<svg width="1024.000000" height="1024.000000" viewBox="0 0 1024 1024" fill="none" xmlns="http://www.w3.org/2000/svg" xmlns:xlink="http://www.w3.org/1999/xlink">
	<desc>
			Created with Pixso.
	</desc>
	<defs>
		<filter id="filter_16_126_dd" x="168.500000" y="334.625000" width="762.302002" height="358.375000" filterUnits="userSpaceOnUse" color-interpolation-filters="sRGB">
			<feFlood flood-opacity="0" result="BackgroundImageFix"/>
			<feColorMatrix in="SourceAlpha" type="matrix" values="0 0 0 0 0 0 0 0 0 0 0 0 0 0 0 0 0 0 127 0" result="hardAlpha"/>
			<feOffset dx="64" dy="0"/>
			<feGaussianBlur stdDeviation="0"/>
			<feComposite in2="hardAlpha" operator="out" k2="-1" k3="1"/>
			<feColorMatrix type="matrix" values="0 0 0 0 0.60392 0 0 0 0 0.60392 0 0 0 0 0.60392 0 0 0 0.25 0"/>
			<feBlend mode="normal" in2="BackgroundImageFix" result="effect_dropShadow_1"/>
			<feBlend mode="normal" in="SourceGraphic" in2="effect_dropShadow_1" result="shape"/>
		</filter>
	</defs>
	<rect id="Component 2" width="1024.000000" height="1024.000000" fill="#FFFFFF" fill-opacity="0"/>
	<rect id="Rectangle 11" rx="255.000000" width="1024.000000" height="1024.000000" fill="#1C1C1C" fill-opacity="1.000000"/>
	<g filter="url(#filter_16_126_dd)">
		<path id="EA" d="M446 693L446 626.5L250.87 626.5L250.87 543.5L417.37 543.5L417.37 479L250.87 479L250.87 401.12L439.37 401.12L439.37 334.62L168.5 334.62L168.5 693L446 693ZM581.67 616.25L748.05 616.25L779.8 693L866.8 693L706.55 334.62L624.67 334.62L464.92 693L549.92 693L581.67 616.25ZM665.17 416L721.92 553.25L608.3 553.25L665.17 416Z" fill="#EFEFEF" fill-opacity="1.000000" fill-rule="evenodd"/>
	</g>
</svg>
